<?xml version="1.0" standalone="no"?>
<!DOCTYPE svg PUBLIC "-//W3C//DTD SVG 20010904//EN"
 "http://www.w3.org/TR/2001/REC-SVG-20010904/DTD/svg10.dtd">
<svg version="1.0" xmlns="http://www.w3.org/2000/svg"
 width="1280.000000pt" height="896.000000pt" viewBox="0 0 1280.000000 896.000000"
 preserveAspectRatio="xMidYMid meet">
<metadata>
Created by potrace 1.15, written by Peter Selinger 2001-2017
</metadata>
<g transform="translate(0.000000,896.000000) scale(0.100000,-0.100000)"
fill="#000000" stroke="none">
<path d="M1120 6135 l0 -2825 4025 0 4025 0 0 994 0 994 38 15 c21 8 58 18 83
22 l45 7 27 -110 c82 -332 160 -827 206 -1307 39 -397 44 -468 37 -538 -44
-510 -74 -1220 -83 -1949 l-6 -548 -4746 -2 -4746 -3 -3 -23 -3 -22 4750 0
4751 0 0 -289 0 -289 -32 -20 c-70 -43 -121 -121 -134 -199 l-7 -43 445 0 444
0 32 168 c42 212 60 358 68 533 l7 139 118 0 c115 0 119 -1 123 -22 3 -13 19
-192 36 -397 17 -206 33 -379 36 -383 3 -4 244 -8 536 -8 l531 0 -7 41 c-11
70 -41 109 -134 179 -18 13 -23 43 -46 285 -15 149 -26 278 -26 288 0 16 37
17 636 17 l635 0 -3 22 -3 23 -637 3 c-500 2 -638 5 -638 15 0 6 -5 53 -10
102 -5 50 -21 198 -35 330 -38 357 -61 551 -115 960 -58 436 -81 619 -120 970
-16 143 -33 283 -39 310 -9 47 -24 491 -16 483 2 -2 11 -93 19 -203 17 -207
53 -543 63 -582 3 -13 10 -23 15 -23 6 0 9 -27 7 -67 -4 -63 -2 -68 17 -71 19
-3 22 -11 26 -61 13 -186 248 -269 382 -135 39 39 66 100 66 151 0 35 3 42 23
45 13 2 21 9 19 18 -2 8 -5 93 -7 190 -2 96 -11 261 -19 365 -54 642 -137
1489 -176 1795 -36 284 -41 299 -102 359 -83 82 -266 151 -468 176 -66 9 -78
14 -155 75 -52 41 -71 49 -145 64 -46 9 -110 19 -142 23 -63 6 -82 20 -52 36
10 6 52 42 92 81 122 118 217 288 263 472 19 75 24 84 45 84 61 0 90 93 81
265 -5 101 -19 165 -37 165 -4 0 -11 35 -15 78 -17 182 -92 376 -184 475 l-45
49 22 38 c43 75 25 92 -63 59 -35 -13 -60 -18 -62 -12 -11 32 -65 103 -79 103
-8 0 -21 -14 -27 -31 -11 -27 -16 -30 -42 -25 -121 21 -160 26 -236 26 -207 0
-403 -63 -551 -177 -171 -131 -269 -356 -267 -613 1 -114 -2 -113 37 -16 4 10
6 -40 4 -110 -8 -261 60 -511 189 -701 42 -62 154 -178 196 -204 29 -18 31
-23 21 -44 -12 -27 -9 -26 -123 -51 -48 -11 -110 -35 -156 -60 -56 -31 -100
-47 -165 -59 -84 -15 -208 -46 -246 -60 -17 -7 -18 69 -18 1504 l0 1511 -4025
0 -4025 0 0 -2825z m9414 -4720 c20 -236 39 -451 42 -477 l6 -48 -121 0 -121
0 5 123 c11 240 26 524 35 657 5 74 19 281 31 460 11 179 24 332 27 340 5 15
26 -211 96 -1055z"/>
</g>
</svg>
