<?xml version="1.0" standalone="no"?>
<!DOCTYPE svg PUBLIC "-//W3C//DTD SVG 20010904//EN"
 "http://www.w3.org/TR/2001/REC-SVG-20010904/DTD/svg10.dtd">
<svg version="1.0" xmlns="http://www.w3.org/2000/svg"
 width="1280.000000pt" height="1082.000000pt" viewBox="0 0 1280.000000 1082.000000"
 preserveAspectRatio="xMidYMid meet">
<metadata>
Created by potrace 1.15, written by Peter Selinger 2001-2017
</metadata>
<g transform="translate(0.000000,1082.000000) scale(0.100000,-0.100000)"
fill="#000000" stroke="none">
<path d="M2300 8366 l0 -2455 -21 -3 c-11 -2 -78 -55 -149 -118 l-129 -115 2
-60 2 -60 288 -3 287 -2 0 -300 0 -300 -263 0 c-290 0 -345 -8 -465 -69 -77
-39 -120 -87 -250 -276 -136 -199 -223 -343 -393 -653 l-133 -244 -4 -83 c-17
-319 143 -487 500 -525 58 -6 304 -12 556 -13 l452 -2 0 -109 c0 -107 0 -108
-22 -102 -13 3 -151 8 -308 12 -512 12 -1037 -27 -1570 -116 -326 -54 -387
-74 -505 -167 -98 -77 -175 -205 -175 -291 0 -20 102 -407 304 -1158 26 -97
44 -126 95 -159 108 -68 255 -87 426 -57 61 11 111 19 113 17 1 -1 12 -93 25
-204 l22 -201 142 0 c142 0 143 0 143 23 0 12 -9 112 -19 222 -11 110 -18 201
-17 203 8 7 321 33 534 43 347 16 776 -5 1136 -56 60 -8 110 -16 112 -17 1 -2
-13 -79 -31 -173 -18 -93 -35 -187 -39 -207 l-7 -38 148 0 149 0 39 170 c21
93 42 175 46 181 6 10 32 8 111 -6 130 -24 302 -25 378 -2 78 23 145 69 179
122 16 25 68 161 117 303 48 141 118 345 155 452 l67 195 241 3 241 2 -1 -192
c0 -106 -6 -426 -12 -711 l-12 -517 138 0 137 0 0 709 0 708 103 7 c196 12
354 45 425 88 64 39 66 53 37 393 -12 146 -49 674 -69 973 l-4 62 1197 0 1198
0 -9 -63 c-17 -114 15 -322 66 -433 38 -82 108 -163 175 -202 l45 -26 -190
-27 c-392 -57 -686 -118 -763 -160 -172 -92 -281 -234 -281 -366 0 -42 77
-288 337 -1076 59 -181 83 -221 153 -257 99 -51 266 -65 405 -36 38 8 71 14
72 12 2 -2 16 -70 32 -152 l27 -149 146 -3 145 -3 -4 23 c-11 58 -50 333 -48
336 4 4 307 40 440 52 207 18 626 24 845 11 183 -10 580 -48 588 -56 2 -2 -8
-83 -22 -180 -14 -98 -26 -179 -26 -181 0 -2 69 -4 154 -4 114 0 155 3 159 13
2 6 15 71 27 144 13 73 26 137 30 143 5 9 29 8 89 0 118 -18 281 -8 355 20 63
24 123 72 155 124 11 17 70 209 131 426 61 217 116 410 121 428 l11 32 22 -42
c49 -93 245 -155 524 -165 131 -5 152 -8 152 -22 0 -9 -9 -236 -20 -506 -11
-269 -20 -514 -20 -542 l0 -53 115 0 115 0 1 88 c0 139 35 1042 40 1046 2 2
99 8 214 13 227 11 272 22 326 79 21 23 22 28 11 69 -6 24 -9 50 -7 58 3 7
-23 71 -59 142 -156 314 -548 1292 -937 2339 -123 332 -140 366 -215 418 -82
58 -81 58 -767 58 l-630 0 4 345 4 345 302 0 301 0 4 70 3 70 -173 104 -172
103 0 2461 0 2462 -4075 0 -4075 0 0 -2454z m7740 -3161 c0 -190 -1 -346 -2
-347 -2 -1 -336 -4 -743 -8 -663 -5 -745 -8 -792 -23 -68 -23 -143 -74 -166
-114 -10 -18 -45 -135 -77 -260 -97 -380 -161 -588 -232 -758 l-34 -80 -1220
-3 -1221 -2 -6 42 c-3 24 -11 223 -17 443 -19 727 -17 701 -52 740 -33 38
-108 77 -195 101 -52 15 -185 16 -1315 15 l-1258 -1 0 300 0 300 3665 0 3665
0 0 -345z m-6754 -2140 c243 -15 337 -28 439 -64 121 -43 215 -117 257 -203
26 -55 43 -120 32 -130 -3 -3 -33 1 -67 9 -316 74 -789 149 -1152 181 l-80 7
-3 114 -3 114 168 -7 c92 -4 276 -14 409 -21z m6764 -275 c0 -9 -148 -3 -159
6 -2 2 32 4 77 4 47 0 82 -4 82 -10z m348 -31 c204 -41 231 -58 47 -29 -66 10
-151 22 -189 27 -44 5 -71 13 -74 22 -5 16 74 9 216 -20z"/>
</g>
</svg>
